<svg width="43" height="42" viewBox="0 0 43 42" fill="none" xmlns="http://www.w3.org/2000/svg">
<path d="M21.3498 23.2065C21.9023 23.2065 22.4322 22.987 22.8229 22.5963C23.2136 22.2056 23.4331 21.6757 23.4331 21.1232L23.4331 12.7899C23.4331 12.2373 23.2136 11.7074 22.8229 11.3167C22.4322 10.926 21.9023 10.7065 21.3498 10.7065C20.7972 10.7065 20.2673 10.926 19.8766 11.3167C19.4859 11.7074 19.2664 12.2373 19.2664 12.7899L19.2664 21.1232C19.2664 21.6757 19.4859 22.2056 19.8766 22.5963C20.2673 22.987 20.7972 23.2065 21.3498 23.2065ZM20.5581 31.3732C21.0653 31.5816 21.6342 31.5816 22.1414 31.3732C22.3972 31.2741 22.6308 31.1254 22.8289 30.9357C23.013 30.7332 23.1609 30.5007 23.2664 30.2482C23.3831 30.001 23.4401 29.7298 23.4331 29.4565C23.4347 29.1824 23.3821 28.9106 23.2785 28.6567C23.1748 28.4029 23.022 28.172 22.8289 27.9774C22.6264 27.7934 22.3939 27.6454 22.1414 27.5399C21.8258 27.4102 21.4832 27.36 21.1436 27.3938C20.8041 27.4276 20.478 27.5442 20.1941 27.7335C19.9102 27.9228 19.6771 28.1789 19.5154 28.4793C19.3536 28.7798 19.2681 29.1153 19.2664 29.4565C19.2741 30.0081 19.4899 30.5365 19.8706 30.9357C20.0687 31.1254 20.3024 31.2741 20.5581 31.3732ZM21.3498 41.9565C25.4702 41.9565 29.4981 40.7347 32.9241 38.4455C36.3502 36.1563 39.0204 32.9026 40.5973 29.0958C42.1741 25.289 42.5867 21.1001 41.7828 17.0588C40.9789 13.0176 38.9948 9.30541 36.0812 6.39182C33.1676 3.47822 29.4554 1.49404 25.4141 0.69018C21.3729 -0.11368 17.184 0.298891 13.3772 1.87571C9.5704 3.45254 6.31668 6.1228 4.02748 9.54883C1.73828 12.9749 0.516428 17.0028 0.516428 21.1232C0.516428 23.8591 1.0553 26.5682 2.10227 29.0958C3.14924 31.6234 4.68382 33.92 6.61837 35.8546C8.55293 37.7892 10.8496 39.3237 13.3772 40.3707C15.9048 41.4177 18.6139 41.9565 21.3498 41.9565ZM21.3498 4.45654C24.6461 4.45654 27.8685 5.43403 30.6093 7.26538C33.3501 9.09674 35.4863 11.6997 36.7478 14.7452C38.0092 17.7906 38.3393 21.1417 37.6962 24.3747C37.0531 27.6077 35.4658 30.5774 33.1349 32.9083C30.804 35.2392 27.8343 36.8265 24.6013 37.4696C21.3682 38.1127 18.0171 37.7827 14.9717 36.5212C11.9263 35.2597 9.32329 33.1235 7.49194 30.3827C5.66058 27.6419 4.6831 24.4196 4.6831 21.1232C4.6831 16.7029 6.43904 12.4637 9.56465 9.33809C12.6903 6.21249 16.9295 4.45654 21.3498 4.45654Z" fill="#D65745"/>
</svg>
