<svg width="42" height="43" viewBox="0 0 42 43" fill="none" xmlns="http://www.w3.org/2000/svg">
<path d="M21 19.3932C20.443 19.3932 19.9089 19.6144 19.5151 20.0082C19.1213 20.4021 18.9 20.9362 18.9 21.4932V29.8932C18.9 30.4501 19.1213 30.9843 19.5151 31.3781C19.9089 31.7719 20.443 31.9932 21 31.9932C21.557 31.9932 22.0911 31.7719 22.4849 31.3781C22.8788 30.9843 23.1 30.4501 23.1 29.8932V21.4932C23.1 20.9362 22.8788 20.4021 22.4849 20.0082C22.0911 19.6144 21.557 19.3932 21 19.3932ZM21.798 11.1612C21.2867 10.9511 20.7133 10.9511 20.202 11.1612C19.9442 11.2611 19.7087 11.411 19.509 11.6022C19.3235 11.8063 19.1744 12.0407 19.068 12.2952C18.9504 12.5444 18.8929 12.8177 18.9 13.0932C18.8984 13.3695 18.9514 13.6435 19.0559 13.8994C19.1604 14.1552 19.3144 14.3879 19.509 14.5842C19.7131 14.7697 19.9475 14.9188 20.202 15.0252C20.5202 15.1559 20.8655 15.2064 21.2078 15.1724C21.5501 15.1384 21.8787 15.0208 22.1649 14.83C22.4511 14.6392 22.686 14.3811 22.8491 14.0782C23.0121 13.7754 23.0983 13.4371 23.1 13.0932C23.0923 12.5372 22.8747 12.0046 22.491 11.6022C22.2913 11.411 22.0558 11.2611 21.798 11.1612ZM21 0.493164C16.8466 0.493164 12.7865 1.72479 9.33303 4.0323C5.8796 6.33981 3.18798 9.61956 1.59854 13.4568C0.00909896 17.2941 -0.406771 21.5165 0.403518 25.5901C1.21381 29.6637 3.21386 33.4055 6.15077 36.3424C9.08767 39.2793 12.8295 41.2794 16.9031 42.0896C20.9767 42.8999 25.1991 42.4841 29.0364 40.8946C32.8736 39.3052 36.1533 36.6136 38.4609 33.1601C40.7684 29.7067 42 25.6466 42 21.4932C42 18.7354 41.4568 16.0046 40.4015 13.4568C39.3461 10.909 37.7993 8.59395 35.8492 6.64392C33.8992 4.69389 31.5842 3.14704 29.0364 2.09169C26.4885 1.03635 23.7578 0.493164 21 0.493164V0.493164ZM21 38.2932C17.6773 38.2932 14.4292 37.3078 11.6664 35.4618C8.90368 33.6158 6.75038 30.992 5.47883 27.9222C4.20728 24.8524 3.87458 21.4745 4.52282 18.2156C5.17105 14.9568 6.77109 11.9633 9.12061 9.61377C11.4701 7.26425 14.4636 5.6642 17.7225 5.01597C20.9814 4.36774 24.3593 4.70044 27.4291 5.97199C30.4989 7.24354 33.1227 9.39684 34.9687 12.1596C36.8147 14.9223 37.8 18.1704 37.8 21.4932C37.8 25.9488 36.03 30.2219 32.8794 33.3725C29.7288 36.5232 25.4556 38.2932 21 38.2932V38.2932Z" fill="#33558B"/>
</svg>
