<svg width="40" height="36" viewBox="0 0 40 36" fill="none" xmlns="http://www.w3.org/2000/svg">
<path d="M19.9998 24.7397C19.6537 24.7397 19.3154 24.8424 19.0276 25.0347C18.7398 25.227 18.5155 25.5003 18.383 25.82C18.2506 26.1398 18.2159 26.4917 18.2834 26.8311C18.351 27.1706 18.5176 27.4824 18.7624 27.7272C19.0071 27.9719 19.3189 28.1386 19.6584 28.2061C19.9979 28.2736 20.3497 28.239 20.6695 28.1065C20.9893 27.9741 21.2626 27.7498 21.4549 27.462C21.6472 27.1742 21.7498 26.8359 21.7498 26.4897C21.7498 26.0256 21.5654 25.5805 21.2373 25.2523C20.9091 24.9241 20.4639 24.7397 19.9998 24.7397ZM38.6723 27.3122L24.5848 2.81223C24.1295 1.99588 23.4644 1.31591 22.6584 0.842553C21.8524 0.369198 20.9346 0.119629 19.9998 0.119629C19.0651 0.119629 18.1473 0.369198 17.3412 0.842553C16.5352 1.31591 15.8702 1.99588 15.4148 2.81223L1.41482 27.3122C0.943714 28.1068 0.690571 29.0115 0.680949 29.9352C0.671327 30.8588 0.905568 31.7687 1.36002 32.5728C1.81447 33.377 2.47305 34.047 3.26927 34.5153C4.06548 34.9835 4.97114 35.2334 5.89482 35.2397H34.1048C35.0359 35.2489 35.9527 35.0103 36.7612 34.5483C37.5696 34.0864 38.2407 33.4177 38.7055 32.6109C39.1704 31.8041 39.4123 30.8882 39.4065 29.9571C39.4006 29.026 39.1472 28.1131 38.6723 27.3122ZM35.6448 30.8122C35.4914 31.0851 35.2676 31.3119 34.9968 31.4689C34.7259 31.6259 34.4179 31.7073 34.1048 31.7047H5.89482C5.58176 31.7073 5.27374 31.6259 5.00288 31.4689C4.73201 31.3119 4.50821 31.0851 4.35482 30.8122C4.20123 30.5462 4.12037 30.2444 4.12037 29.9372C4.12037 29.63 4.20123 29.3283 4.35482 29.0622L18.3548 4.56223C18.5017 4.27558 18.7248 4.03502 18.9996 3.86703C19.2744 3.69905 19.5902 3.61016 19.9123 3.61016C20.2344 3.61016 20.5502 3.69905 20.825 3.86703C21.0998 4.03502 21.323 4.27558 21.4698 4.56223L35.5573 29.0622C35.7309 29.3244 35.8307 29.6286 35.8461 29.9427C35.8615 30.2568 35.792 30.5693 35.6448 30.8472V30.8122ZM19.9998 10.7397C19.5357 10.7397 19.0906 10.9241 18.7624 11.2523C18.4342 11.5805 18.2498 12.0256 18.2498 12.4897V19.4897C18.2498 19.9539 18.4342 20.399 18.7624 20.7272C19.0906 21.0554 19.5357 21.2397 19.9998 21.2397C20.4639 21.2397 20.9091 21.0554 21.2373 20.7272C21.5654 20.399 21.7498 19.9539 21.7498 19.4897V12.4897C21.7498 12.0256 21.5654 11.5805 21.2373 11.2523C20.9091 10.9241 20.4639 10.7397 19.9998 10.7397Z" fill="#EAC645"/>
</svg>
